<svg xmlns="http://www.w3.org/2000/svg" width="36" height="35.996" viewBox="0 0 36 35.996"><defs><style>.a{fill:#fff;}</style></defs><path class="a" d="M20.847,24.1a13.35,13.35,0,0,0-2.8-1.5,7.157,7.157,0,0,0,2.328-4.721,10.584,10.584,0,0,1,13.421-1.1A1.406,1.406,0,1,0,35.4,14.474a13.365,13.365,0,0,0-2.805-1.5,7.171,7.171,0,1,0-9.655-.016q-.295.113-.585.241a13.353,13.353,0,0,0-2.477,1.423,7.17,7.17,0,1,0-11.5,7.948A13.522,13.522,0,0,0,.208,30.985,4.219,4.219,0,0,0,4.224,36.5H16.457a1.406,1.406,0,0,0,0-2.812H4.224a1.407,1.407,0,0,1-1.339-1.837,10.849,10.849,0,0,1,10.307-7.339,10.517,10.517,0,0,1,6.046,1.9A1.406,1.406,0,1,0,20.847,24.1ZM27.776,3.312a4.359,4.359,0,1,1-4.359,4.359A4.364,4.364,0,0,1,27.776,3.312ZM13.223,12.935a4.359,4.359,0,1,1-4.359,4.359A4.364,4.364,0,0,1,13.223,12.935ZM36,29.817A1.406,1.406,0,0,1,34.6,31.223H30.728v3.867a1.406,1.406,0,1,1-2.812,0V31.223H24.05a1.406,1.406,0,0,1,0-2.812h3.867V24.544a1.406,1.406,0,0,1,2.812,0v3.867H34.6A1.406,1.406,0,0,1,36,29.817Zm0,0" transform="translate(-0.001 -0.5)"/></svg>