<svg xmlns="http://www.w3.org/2000/svg" width="20" height="20" viewBox="0 0 20 20"><defs><style>.a{fill:#003a49;}</style></defs><path class="a" d="M18.233,17.315A2.226,2.226,0,0,1,16.058,20H2.222A2.226,2.226,0,0,1,.047,17.315a9.289,9.289,0,0,1,6.067-6.884A4.881,4.881,0,0,1,9.14,1.719c.061,0,.124,0,.186,0a.781.781,0,0,1-.059,1.561l-.127,0a3.32,3.32,0,1,0,0,6.64A3.286,3.286,0,0,0,11.2,9.21a.781.781,0,0,1,.977,1.219,9.3,9.3,0,0,1,4.393,3.2.781.781,0,0,1-1.249.939A7.666,7.666,0,0,0,9.14,11.485a7.755,7.755,0,0,0-7.563,6.149.67.67,0,0,0,.136.562.648.648,0,0,0,.51.242H16.058a.648.648,0,0,0,.51-.242.67.67,0,0,0,.136-.562.781.781,0,0,1,1.53-.318ZM19.925,6.04l-.3.628a.782.782,0,0,1-.928.416l-.888-.263a3.094,3.094,0,0,1-.725.45l-.144.9a.781.781,0,0,1-.771.658h-.7a.781.781,0,0,1-.769-.643l-.166-.923a3.112,3.112,0,0,1-.6-.36l-.858.309a.781.781,0,0,1-.945-.352l-.347-.616a.781.781,0,0,1,.19-.991L12.7,4.66c0-.017,0-.035,0-.052s0-.033,0-.05c0-.048,0-.1,0-.144s0-.1,0-.152l-.752-.506A.781.781,0,0,1,11.7,2.731l.364-.663a.781.781,0,0,1,.907-.373l.911.27a3.115,3.115,0,0,1,.651-.4l.125-.894A.781.781,0,0,1,15.429,0h.742a.781.781,0,0,1,.769.643l.166.923.045.022.048.023.1.051.031.017c.037.02.073.041.109.063l0,0c.085.052.167.106.247.166l.844-.322a.781.781,0,0,1,.941.315l.407.65A.781.781,0,0,1,19.7,3.585l-.762.592c0,.016,0,.031,0,.047s0,.032,0,.048c0,.047,0,.1,0,.143s0,.081,0,.122l.738.541A.781.781,0,0,1,19.925,6.04ZM14.257,4.414c0,.03,0,.06,0,.09,0,.008,0,.017,0,.025s0,.043.006.065l0,.028q0,.031.01.062l0,.028c0,.021.009.043.014.064a1.562,1.562,0,0,0,.394.72l.042.042.029.028c.02.019.042.037.063.055l.035.027.039.029.039.028.047.03.061.037.04.022.043.022.05.023.057.024.058.022.038.013.066.02a1.557,1.557,0,0,0,.8.009c.033-.008.065-.018.1-.028l.034-.011.068-.025.056-.024.052-.024.048-.024.043-.024.072-.044.037-.025.043-.031c.023-.017.045-.034.067-.052l.031-.027.058-.054.016-.015c.024-.024.047-.05.07-.076a1.56,1.56,0,0,0,.356-.711c0-.016.006-.032.009-.048s0-.019.005-.029.007-.048.009-.072c0,0,0,0,0-.007a1.553,1.553,0,0,0,.008-.162c0-.03,0-.06,0-.09,0-.009,0-.017,0-.025s0-.043-.006-.065,0-.019,0-.028-.006-.041-.01-.062l-.005-.028c0-.022-.009-.043-.014-.064a1.56,1.56,0,0,0-.4-.72l-.05-.05-.021-.02c-.022-.02-.044-.039-.067-.058l-.03-.023-.046-.034L16.7,3.122l-.069-.045-.038-.022-.044-.024-.041-.021-.056-.026L16.4,2.963l-.056-.022L16.3,2.929l-.065-.02a1.554,1.554,0,0,0-.829,0l-.066.019-.047.016-.041.015c-.032.013-.064.026-.1.041l-.021.009-.059.03-.014.008a1.57,1.57,0,0,0-.178.115l-.008.006c-.035.027-.069.055-.1.084l-.01.009-.048.046-.015.015a1.562,1.562,0,0,0-.407.743q-.009.04-.016.081V4.15q-.007.041-.012.082v.007c0,.026-.005.052-.007.078,0,0,0,.007,0,.011C14.258,4.357,14.257,4.385,14.257,4.414Zm0,0" transform="translate(0.001)"/></svg>