<svg xmlns="http://www.w3.org/2000/svg" width="18" height="14.402" viewBox="0 0 18 14.402"><defs><style>.a{fill:#949598;}</style></defs><path class="a" d="M15.588,14.333l-1.477-.708a.71.71,0,0,1-.333-.943.7.7,0,0,1,.937-.335l.906.434a7.663,7.663,0,0,0,.3-6.864.71.71,0,0,1,.352-.936.7.7,0,0,1,.93.354,9.088,9.088,0,0,1-.732,8.752.7.7,0,0,1-.887.246ZM1.525,14.087A9.081,9.081,0,0,1,2.636,2.653,8.963,8.963,0,0,1,12.7.8a.71.71,0,0,1,.352.936.7.7,0,0,1-.93.354A7.468,7.468,0,0,0,9.7,1.447V2.512a.7.7,0,1,1-1.406,0V1.448A7.6,7.6,0,0,0,2.521,5.075l.982.474A.708.708,0,0,1,3.2,6.9a.7.7,0,0,1-.3-.07L1.9,6.345a7.652,7.652,0,0,0,.474,6.431l.868-.426a.7.7,0,0,1,.94.326.71.71,0,0,1-.324.946l-1.441.708a.7.7,0,0,1-.893-.243ZM7.508,10.56a2.135,2.135,0,0,1,0-3c.567-.571,5.844-4.2,6.9-4.922a.7.7,0,0,1,.893.084.711.711,0,0,1,.084.9c-.717,1.059-4.323,6.37-4.89,6.941a2.1,2.1,0,0,1-2.983,0Zm.994-2a.712.712,0,0,0,0,1,.7.7,0,0,0,.994,0c.218-.222,1.286-1.73,2.568-3.585C10.221,7.264,8.723,8.339,8.5,8.558Z"/></svg>