<svg xmlns="http://www.w3.org/2000/svg" width="18" height="18" viewBox="0 0 18 18"><defs><style>.a{fill:#949598;}</style></defs><path class="a" d="M15.364,2.636A9,9,0,0,0,2.636,15.364,9,9,0,0,0,13.657,16.7a.7.7,0,0,0-.729-1.2A7.594,7.594,0,1,1,8.191,1.449V4.466A4.57,4.57,0,1,0,12.32,12.1L15.5,14.193a.7.7,0,0,0,.97-.2,8.978,8.978,0,0,0-1.111-11.36ZM9.6,1.43a7.552,7.552,0,0,1,1.241.2L9.6,2.873ZM9,12.129a3.164,3.164,0,1,1,3.164-3.164A3.168,3.168,0,0,1,9,12.129Zm2.392-7.057A4.542,4.542,0,0,0,9.962,4.5L12.3,2.161a7.607,7.607,0,0,1,1.246.759Zm3.2-1.208a7.643,7.643,0,0,1,.879,1.16l-2.23,2.23a4.577,4.577,0,0,0-.773-1.266Zm-1.47,7.08a4.543,4.543,0,0,0,.451-1.98c0-.018,0-.036,0-.054L16.12,6.36a7.53,7.53,0,0,1,.4,1.591l-3.155,3.155Zm2.549,1.673-1.1-.723,1.97-1.97A7.555,7.555,0,0,1,15.668,12.618Z" transform="translate(0 0)"/></svg>