<svg xmlns="http://www.w3.org/2000/svg" width="278.32" height="76" viewBox="0 0 278.32 76"><defs><style>.a{fill:#82ba26;}.b{fill:#003a49;}.c{fill:#fff;}</style></defs><g transform="translate(-55 -157)"><g transform="translate(55 157)"><rect class="a" width="76" height="76" rx="15"/><path class="b" d="M53.327,14.473a9.857,9.857,0,0,1-2.269-.49c1.054-.546,2.824-1.695,3.766-.207-.226.631-.941.593-1.469.7m-4.961-3.615A3.577,3.577,0,0,1,52.16,9.37a4.83,4.83,0,0,1,1.657.838c0,.377.508.4.546.753h0a7.456,7.456,0,0,0-5.959-.169m0,11.231a.791.791,0,0,1,.4.838c0,.442-.4.151-.734,0a3.6,3.6,0,0,0-3.521.292c-.763.471-.941-.33-1.243-.894-.122-.217-.442-.65-.7-.508s-.122.941,0,1.092a1.553,1.553,0,0,1-.621,1.553c-.442,0-.49-.235-.7-.584-.65-1.12-.838-3.408.424-3.822a4.18,4.18,0,0,1,3.766.838,10.723,10.723,0,0,0,3,1.177M32.8,22.362c.169.866-.4,2.824-.734,2.824s-.593-.612-.734-1.431.584-1.883-.169-2.09c-1.092,0-.612,1.8-1.469,1.8-.461,0-.941-.48-1.535-.668-3.022-.838-4.2,1.657-4.83,1.553-1.045-.235-.207-.941,0-1.243a8.03,8.03,0,0,1,4.2-2.1,12.371,12.371,0,0,1,3.822-1.064c1.789.245,1.3,1.883,1.45,2.58M20.631,17.071a59,59,0,0,1-6.044-2.824c-.358,0-.819-.254-1.139,0s.292.442.442.687a4.764,4.764,0,0,0-2.58.424h-.574c0-.48.433-.885.734-1.243A4.161,4.161,0,0,1,14.578,12.8h0a6.364,6.364,0,0,1,3.521,1.13c1.7,1.007,3.069,2.561,4.707,3.7a8.6,8.6,0,0,1-2.372-.546m.941-8.774a8.407,8.407,0,0,1,5.093,3.342c.941,1.516,1.337,3.512,3.107,4.491a2.551,2.551,0,0,0,.81.49,2.966,2.966,0,0,1-1.13-.339c-.151,0-.292-.254-.48,0s0,.169,0,.273.273.207.414.358a1.13,1.13,0,0,0-.245.273c-1.883-.715-2.1-2.768-3-4.2a6.3,6.3,0,0,0-1.76-2.288.339.339,0,0,0-.339.207,10.487,10.487,0,0,0,.734.941,4.848,4.848,0,0,1,.885,2.824c-.132,0,0,.32-.235.339a.687.687,0,0,1-.612-.339c-.941-1.28-.941-3.022-2.307-4.2h0c-.414.358,0,.941,0,1.5v.358a6.665,6.665,0,0,0-3.041-3.342,6.119,6.119,0,0,0-5.037,1.4s-.169,0-.169-.122c0-.734,1.506-3.4,7.447-2.1m4.011,36.961c.941-1.77,4.641-4.707,6.59-4.2a5.093,5.093,0,0,1,3.841,4.6c.358,4.076-4.764,6.468-5.037,6.3s0-.358,0-.565a.264.264,0,0,0-.273-.207c-1.13,0-1.2,1.591-1.949,2.259-.207,0-.339-.188-.527-.292-.4-.65.668-.631.819-1.13a.941.941,0,0,0-.122-.941.668.668,0,0,0-.838,0c-.424.311-.442,1.111-.989.876a1.186,1.186,0,0,1-.235-.894c.565-.7,1.6-.546,1.7-1.6,0-.631.546-.565.876-.687s.386-.546.49-.941c.273-.763.941-.612,1.045-1.036a.546.546,0,0,0-.273-.6.941.941,0,0,0-.857.254c-.188.141,0,.5-.358.65a3.408,3.408,0,0,1-.941.292c-.49.169-.508.65-.612,1.177s-.584.141-.8.207a2.627,2.627,0,0,0-.8,1.092h0a2.824,2.824,0,0,1-.518-.339c-.132-.122-.188-.311,0-.442a.706.706,0,0,1,.33-.245.659.659,0,0,0,.442-.763c-.169-.584.546-.791.565-1.026a.49.49,0,0,0-.245-.5c-.442-.273-.781.226-1.2.4s-.574.151-.574-.085a3.766,3.766,0,0,1,.461-1.676M58.392,11.9c-.546-3.766-2.824-2.645-2.5-3.907.038-.33-.33-2-2.7-2h-37.6A9.076,9.076,0,0,0,6.5,15.047V33.17a4.246,4.246,0,0,0,2.608-.48c1.45-1.77,2.768-4.076,5.121-4.557a2.3,2.3,0,0,1,2.1.358c-.254.546-.941.48-1.45.65a7.475,7.475,0,0,0-4.2,2.749.367.367,0,0,0,.1.442,1.243,1.243,0,0,0,.527,0c.772-.565,1.535-1.327,2.58-1.177a.292.292,0,0,1,.169.377v.047a8.746,8.746,0,0,1-2.382,1.44c-1.073.866-4.011,1.582-4.387,3a13.935,13.935,0,0,0,1.535.188c1.356,0,1.713-1.535,2.768-2.222.4-.254.941-.612,1.384-.358,0,.207-.122.339-.169.527-1.233,1.28-2.824,2.1-3.982,3.38-.386.4-2.1.876-2.25,1.3v5.018a17.661,17.661,0,0,1,5.376-4.707c.188,0,.5-.122.65,0s0,.687,0,1.007c-.753,1.3-1.808,2.457-2.476,3.766a2.824,2.824,0,0,1,.4-1.676s.1-.292,0-.377c-.546,0-.819.631-1.007,1.007-.659,1.648-2.655,3.37-2.966,5.178V61.329a9.659,9.659,0,0,0,9.659,9.631h5.027a11.118,11.118,0,0,0,2.372-2.683c.678-.941.847-2.1,1.657-2.956h.358a3.653,3.653,0,0,1-.292,3c-.226.584-.753,1.026-.772,1.713,0,.169.4.188.584,0a9.038,9.038,0,0,0,2.1-5.159s0-.273.207-.254.1.631,0,.941a1.318,1.318,0,0,0-.141.781c.734.292.791-.781,1.092-1.224.1,0,.245,0,.273.235a3.013,3.013,0,0,1-.819,2.457c-.254.226-.866.377-.734.772s.584.254.876.169.132.1,0,.273a8.379,8.379,0,0,1-1.826,1.883h2.777a15.223,15.223,0,0,0,3.9-3.549h.169c.734-1.045,1.431-2.1,2.1-3.191a5.3,5.3,0,0,0,.941-3.86c-.339-.819-1.243-.48-1.883-.461a2.674,2.674,0,0,1-.941-.631c-.122-.235,0-.584-.292-.734-.678-.188-1.2.424-1.685.885-.188.1-.414.311-.584.16,0-1.318,1.2-2.1,1.4-3.333,0-.254-.226-.358-.4-.508-.941,0-1.346.941-1.977,1.431h-.292a.941.941,0,0,1-.169-.734,4.707,4.707,0,0,1,1.177-2.1,8.153,8.153,0,0,1,6.505-3.3c4.2,0,7.014,2.711,7.71,2.711a.791.791,0,0,0,.546-.941c-.047-.678-.273-1.243-.678-1.3s.273.518-.687.311c-3.719-.857-6.3-3.38-6.129-5.649s-.254-3.361,4.029-5.169c.631-.273,1.553-.311,1.365-1.949,0,0-.132-.508-.49-.508s-.414.132-.4.358.207.424-.358.424-.273-.65-1.7-.65a3.587,3.587,0,0,0-1.544.226,4.208,4.208,0,0,1-1.7.235,3.559,3.559,0,0,1-1.666-.254,4.406,4.406,0,0,0-1.638-.235c-1.4,0-1.177.678-1.7.7s-.377-.235-.292-.546.235-.339-.631-.941a1.186,1.186,0,0,1-.292-1.431,7.193,7.193,0,0,0,.989-2.711c.169-1.083-1.808-3.37-2.1-4.048-.631-1.2,0-1.657-2.372-1.93A3.229,3.229,0,0,1,24,25.064c0-.141,0-.4.443-.207.8.442,1.45,1.977,2.711,1.977s2.664.245,2.918.753c.546,1.158,1.167,1.4,1.487,1.431.941,0-.273-1.977,0-2.335s.527-.188.838-.1a3.945,3.945,0,0,1,2.062,1.262c0,.16.753,0,.857-.3.442-1.779,1.036-1.713,1.883-1.591s.876.122.876,1.073a.715.715,0,0,0,.593.81.64.64,0,0,0,.377,0c.753-.188,1.13-1.723,1.968-1.779.217,0,.32,0,.377.188s-.65.791-.433,1.233.377-.207.631,0c.6.32.226,1.638.81,1.619s.659-.584,1.036-1.073a2.222,2.222,0,0,1,1.2-.857,24.015,24.015,0,0,0,3.945-1.337c2.824-1.553,1.054-5.733-1.214-8.4-.546-.678.273-1.2.941-.508,1.365,1.365,2.1,3.361,3.05,3.361a10.7,10.7,0,0,0,5.018-2.1,7.475,7.475,0,0,0,2.1-6.148" transform="translate(-0.381 -0.351)"/></g><g transform="translate(148.276 183.653)"><path class="c" d="M6.714,21.188A9.132,9.132,0,0,1,0,18.752l1.209-1.209a7.179,7.179,0,0,0,5.45,2.027c3.273,0,4.985-1.135,4.985-3.366,0-1.767-.949-2.548-3.162-2.79l-2.753-.242c-3.348-.223-5-1.674-5-4.3,0-2.9,2.344-4.724,5.97-4.724a9.672,9.672,0,0,1,5.822,1.767L11.346,7.09A7.7,7.7,0,0,0,6.7,5.732c-2.771,0-4.241,1.135-4.241,3.2,0,1.767,1.023,2.548,3.366,2.79l2.7.242c2.753.279,4.854,1.1,4.854,4.352S10.825,21.188,6.714,21.188Z" transform="translate(0 3.567)"/><path class="c" d="M10.42,0H12.6V2.176H10.42Zm.2,7.923h1.748V24.551H10.625Z" transform="translate(8.96)"/><path class="c" d="M37.663,10.665c0-3.2-1.581-4.929-4.52-4.929a4.334,4.334,0,0,0-4.687,4.65v10.6H26.634V10.665c0-3.2-1.581-4.929-4.65-4.929A4.371,4.371,0,0,0,17.3,10.684v10.3H15.53V4.36H17.3V6.332a6.138,6.138,0,0,1,4.929-2.176,5.58,5.58,0,0,1,5.338,3.032,6.38,6.38,0,0,1,5.58-3.032,6.268,6.268,0,0,1,4.52,1.581,6.212,6.212,0,0,1,1.73,4.631v10.62h-1.73Z" transform="translate(13.355 3.563)"/><path class="c" d="M43.1,23.3a5.8,5.8,0,0,1-4.073,1.451A5.58,5.58,0,0,1,34.1,22.412v2.139H32.35V0H34.1V10.062a5.58,5.58,0,0,1,4.929-2.344A5.8,5.8,0,0,1,43.1,9.169a9.951,9.951,0,0,1,2.139,7.068A9.951,9.951,0,0,1,43.1,23.3ZM38.785,9.3c-4.073,0-4.687,3.515-4.687,6.956s.614,6.956,4.687,6.956,4.687-3.515,4.687-6.956S42.859,9.3,38.785,9.3Z" transform="translate(27.819)"/><path class="c" d="M53.261,19.34A6.175,6.175,0,0,1,48.2,21.2a6.1,6.1,0,0,1-4.91-1.525,4.594,4.594,0,0,1-1.19-3.236c0-3.032,2.158-4.8,5.784-4.8h5.375V9.78c0-2.641-1.283-4.036-4.687-4.036a4.78,4.78,0,0,0-4.594,2.1L42.715,6.73a6.287,6.287,0,0,1,5.859-2.548c4.408,0,6.454,1.972,6.454,5.45V21H53.261ZM48.09,13.054q-4.315,0-4.315,3.348c0,2.213,1.3,3.236,4.352,3.236a5.58,5.58,0,0,0,4.129-1.265,4.352,4.352,0,0,0,.93-3.18V13.054Z" transform="translate(36.202 3.555)"/><g transform="translate(98.316 7.247)"><path class="c" d="M59.537,14.679H56.226v6.491H52.86V4h6.677a5.344,5.344,0,1,1,0,10.676ZM59.37,6.942H56.226v4.724H59.37a2.269,2.269,0,0,0,2.492-2.344A2.288,2.288,0,0,0,59.37,6.942Z" transform="translate(-52.86 -3.811)"/><path class="c" d="M71.842,19.508a6.677,6.677,0,0,1-9.3,0c-1.73-1.73-1.693-3.887-1.693-6.863s0-5.133,1.693-6.863a6.677,6.677,0,0,1,9.3,0c1.73,1.73,1.711,3.887,1.711,6.863S73.572,17.778,71.842,19.508ZM69.35,7.809A2.809,2.809,0,0,0,67.192,6.9a2.846,2.846,0,0,0-2.176.911c-.651.725-.818,1.525-.818,4.836s.167,4.11.818,4.836a2.846,2.846,0,0,0,2.176.911,2.809,2.809,0,0,0,2.158-.911c.651-.725.837-1.525.837-4.836S70,8.534,69.35,7.809Z" transform="translate(-45.989 -3.896)"/><path class="c" d="M78.792,21.173,75.426,14.31H73.008v6.863H69.66V4.006h6.733a5.208,5.208,0,0,1,5.58,5.282,4.65,4.65,0,0,1-3.125,4.464l3.831,7.44Zm-2.6-14.228h-3.18v4.5h3.18a2.288,2.288,0,1,0,0-4.557Z" transform="translate(-38.413 -3.814)"/><path class="c" d="M85.449,6.939V21.167H82.064V6.939H77.6V4H89.95V6.939Z" transform="translate(-31.585 -3.807)"/><path class="c" d="M95.73,21.167l-1.023-3.05H88.588l-1.042,3.05h-3.5L90.3,4H92.94l6.287,17.223ZM91.713,9.022,89.537,15.29h4.278Z" transform="translate(-26.039 -3.807)"/><path class="c" d="M93.48,21.167V4h3.366V18.228h7.812v2.994Z" transform="translate(-17.93 -3.807)"/></g></g></g></svg>