<svg xmlns="http://www.w3.org/2000/svg" width="18" height="18" viewBox="0 0 18 18"><defs><style>.a{fill:#fff;}</style></defs><path class="a" d="M.214,17.8a.7.7,0,0,1-.162-.768l1.027-2.54A5.455,5.455,0,0,1,0,11.233,5.684,5.684,0,0,1,2.63,6.5,6.834,6.834,0,0,1,4.879,2.06,7.991,7.991,0,0,1,10.3,0a7.991,7.991,0,0,1,5.422,2.06A6.8,6.8,0,0,1,18,7.106a7.1,7.1,0,0,1-.078,1.013.7.7,0,1,1-1.391-.207,5.732,5.732,0,0,0,.063-.806c0-3.143-2.823-5.7-6.293-5.7s-6.293,2.557-6.293,5.7a6.092,6.092,0,0,0,6.293,5.7,6.78,6.78,0,0,0,2.676-.54.7.7,0,0,1,.56,0L16,13.353l-.828-2.048a.7.7,0,0,1,1.3-.527l1.477,3.654a.7.7,0,0,1-.936.907l-3.772-1.663a8.093,8.093,0,0,1-1.461.406,6.053,6.053,0,0,1-2.127,2.071,6.655,6.655,0,0,1-3.308.9l-.052,0a6.692,6.692,0,0,1-2.345-.418L.987,17.94A.7.7,0,0,1,.214,17.8Zm1.193-6.568a4.1,4.1,0,0,0,1.012,2.688.7.7,0,0,1,.117.72L2,15.955l1.647-.726a.7.7,0,0,1,.56,0,5.274,5.274,0,0,0,2.054.42h.028A5.167,5.167,0,0,0,9.9,14.2a7.859,7.859,0,0,1-5.115-2.164,7.1,7.1,0,0,1-2.08-3.8A4.183,4.183,0,0,0,1.406,11.233Zm10.969-4.1a.7.7,0,1,1,.7.7A.7.7,0,0,1,12.375,7.137Zm-2.812,0a.7.7,0,1,1,.7.7A.7.7,0,0,1,9.563,7.137Zm-2.812,0a.7.7,0,1,1,.7.7A.7.7,0,0,1,6.75,7.137Z" transform="translate(0)"/></svg>