<svg xmlns="http://www.w3.org/2000/svg" width="18" height="21.97" viewBox="0 0 18 21.97"><defs><style>.a{fill:#949598;}</style></defs><path class="a" d="M3.4,21.97A3.419,3.419,0,0,1,0,18.536V6.863A3.419,3.419,0,0,1,3.4,3.43,3.419,3.419,0,0,1,6.792,0H14.6A3.419,3.419,0,0,1,18,3.433v7.381a.849.849,0,1,1-1.7,0V3.433a1.709,1.709,0,0,0-1.7-1.717H6.792a1.709,1.709,0,0,0-1.7,1.717V15.106a1.715,1.715,0,0,0,.5,1.214,1.678,1.678,0,0,0,1.2.5h0l7.811,0A1.709,1.709,0,0,0,16.3,15.1a.849.849,0,1,1,1.7,0,3.426,3.426,0,0,1-2.972,3.407v.026a3.419,3.419,0,0,1-3.4,3.433ZM1.7,6.863V18.536a1.709,1.709,0,0,0,1.7,1.717h8.236a1.709,1.709,0,0,0,1.7-1.716l-6.537,0h0a3.355,3.355,0,0,1-2.4-1.005A3.43,3.43,0,0,1,3.4,15.106V5.147A1.709,1.709,0,0,0,1.7,6.863Zm5.986,6.355a.858.858,0,0,1,0-1.717h2.59a.858.858,0,0,1,0,1.717Zm0-3.433a.858.858,0,0,1,0-1.717h6.024a.858.858,0,0,1,0,1.717Zm0-3.433a.858.858,0,0,1,0-1.717h6.024a.858.858,0,0,1,0,1.717Z"/></svg>