<svg xmlns="http://www.w3.org/2000/svg" width="18" height="18" viewBox="0 0 18 18"><defs><style>.a{fill:#82ba26;}</style></defs><path class="a" d="M8.648,18a2.112,2.112,0,0,1-2.109-2.109v-.354a.235.235,0,0,0-.149-.215l-.013-.005a.235.235,0,0,0-.258.046l-.25.25a2.109,2.109,0,0,1-2.983,0l-.5-.5a2.109,2.109,0,0,1,0-2.983l.25-.25a.236.236,0,0,0,.046-.259l-.006-.015a.234.234,0,0,0-.214-.147H2.109A2.112,2.112,0,0,1,0,9.352v-.7A2.112,2.112,0,0,1,2.109,6.539h.354a.235.235,0,0,0,.215-.149l0-.01a.237.237,0,0,0-.045-.261l-.25-.25a2.112,2.112,0,0,1,0-2.983l.5-.5a2.109,2.109,0,0,1,2.983,0l.25.25a.236.236,0,0,0,.259.046l.014-.006a.235.235,0,0,0,.149-.215V2.109A2.112,2.112,0,0,1,8.648,0h.7a2.112,2.112,0,0,1,2.109,2.109v.354a.235.235,0,0,0,.149.215l.013.005a.236.236,0,0,0,.258-.046l.25-.25a2.109,2.109,0,0,1,2.983,0l.5.5a2.112,2.112,0,0,1,0,2.983l-.25.25a.236.236,0,0,0-.046.258l.006.015a.234.234,0,0,0,.214.147h.354A2.112,2.112,0,0,1,18,8.648v.7a2.112,2.112,0,0,1-2.109,2.109h-.354a.235.235,0,0,0-.215.149l-.005.013a.236.236,0,0,0,.046.259l.25.25a2.109,2.109,0,0,1,0,2.983l-.5.5a2.109,2.109,0,0,1-2.983,0l-.25-.25a.236.236,0,0,0-.259-.046l-.014.006a.235.235,0,0,0-.149.215v.354A2.112,2.112,0,0,1,9.352,18ZM6.916,14.017l.009,0a1.637,1.637,0,0,1,1.02,1.515v.354a.7.7,0,0,0,.7.7h.7a.7.7,0,0,0,.7-.7v-.354a1.636,1.636,0,0,1,1.019-1.515l.01,0a1.637,1.637,0,0,1,1.793.35l.25.25a.7.7,0,0,0,.994,0l.5-.5a.7.7,0,0,0,0-.994l-.25-.25a1.638,1.638,0,0,1-.351-1.792l0-.011a1.636,1.636,0,0,1,1.515-1.019h.354a.7.7,0,0,0,.7-.7v-.7a.7.7,0,0,0-.7-.7h-.354a1.637,1.637,0,0,1-1.515-1.019l-.005-.013a1.636,1.636,0,0,1,.351-1.79l.25-.25a.7.7,0,0,0,0-.994l-.5-.5a.7.7,0,0,0-.994,0l-.25.25a1.638,1.638,0,0,1-1.792.351l-.009,0a1.637,1.637,0,0,1-1.02-1.515V2.109a.7.7,0,0,0-.7-.7h-.7a.7.7,0,0,0-.7.7v.354A1.636,1.636,0,0,1,6.926,3.978l-.01,0a1.638,1.638,0,0,1-1.793-.35l-.25-.25a.7.7,0,0,0-.994,0l-.5.5a.7.7,0,0,0,0,.994l.25.25a1.637,1.637,0,0,1,.351,1.792l0,.008A1.638,1.638,0,0,1,2.463,7.945H2.109a.7.7,0,0,0-.7.7v.7a.7.7,0,0,0,.7.7h.354a1.637,1.637,0,0,1,1.515,1.019l0,.011a1.638,1.638,0,0,1-.351,1.792l-.25.25a.7.7,0,0,0,0,.994l.5.5a.7.7,0,0,0,.994,0l.25-.25a1.63,1.63,0,0,1,1.155-.478A1.661,1.661,0,0,1,6.916,14.017ZM4.922,9a4.078,4.078,0,1,1,7.993,1.147.7.7,0,0,1-1.35-.395,2.668,2.668,0,1,0-1.757,1.8.7.7,0,0,1,.424,1.341A4.081,4.081,0,0,1,4.922,9Z"/></svg>